# xmcd
#
# Track frame offsets: 
#        182
#        19757
#        41932
#        63770
#        82100
#        103847
#        122465
#        135990
#        160455
#        178825
#
# Disc length: 2562 seconds
#
# Revision: 6
# Processed by: cddbd v1.5.2PL0 Copyright (c) Steve Scherf et al.
# Submitted via: ExactAudioCopy v0.95a4
#
DISCID=840a000a
DTITLE=The Jayhawks - Hollywood Town Hall
DYEAR=1992
DGENRE=Rock
TTITLE0=Waiting For The Sun
TTITLE1=Crowded In The Wings
TTITLE2=Clouds
TTITLE3=Two Angels
TTITLE4=Take Me With You (When You Go)
TTITLE5=Sister Cry
TTITLE6=Settled Down Like Rain
TTITLE7=Wichita
TTITLE8=Nevada, California
TTITLE9=Martin's Song
EXTD=
EXTT0=
EXTT1=
EXTT2=
EXTT3=
EXTT4=
EXTT5=
EXTT6=
EXTT7=
EXTT8=
EXTT9=
PLAYORDER=
